<?xml version="1.0" encoding="UTF-8"?>
<svg id="Layer_1" data-name="Layer 1" xmlns="http://www.w3.org/2000/svg" viewBox="0 0 845.62 335.66">
  <defs>
    <style>
      .cls-1 {
        fill: #1f140f;
      }
    </style>
  </defs>
  <path d="M162.19,177.79l-3.7-6.39,6.53-3.58c22.74-12.46,31.81-28.71,31.81-44.62,0-22.2-20.24-38.94-47.06-38.94-1.13,0-2.24.02-3.33.06,16.89,9.62,27.48,26.38,27.48,45.8s-10.72,33.81-34.56,46.06c35.01,68.11,46.04,75.2,74.93,75.2,1.75,0,3.42-.04,4.99-.13-17.38-13.28-34.91-35.2-57.08-73.47Z"/>
  <path class="cls-1" d="M294.48,251.39c-5.9,0-11.51-.31-17.77-1.03,3.7-4.97,5.93-11.34,6.3-18.63.84-22.68,1.23-42.12,1.23-61.27,0-34.18-.33-52.31-1.24-66.89-.6-8.07-3.44-14.08-7.2-18.45,5.9-.55,12.08-.85,18.07-.85s12.07.38,17.87,1.05c-3.21,4.48-5.51,10.54-6.08,18.47-1,18.74-1.54,42.36-1.54,66.67,0,17.04,0,36.35,1.53,61.34.3,8.4,3.08,14.42,6.76,18.74-5.98.55-12.1.85-17.93.85Z"/>
  <path class="cls-1" d="M97.47,251.39c-5.9,0-11.51-.31-17.77-1.03,3.7-4.97,5.93-11.34,6.3-18.63.84-22.68,1.23-42.12,1.23-61.27,0-34.18-.33-52.31-1.24-66.89-.6-8.07-3.44-14.08-7.2-18.45,5.9-.55,12.08-.85,18.07-.85s12.07.38,17.87,1.05c-3.21,4.48-5.51,10.54-6.08,18.47-1,18.74-1.54,42.36-1.54,66.67,0,17.04,0,36.35,1.53,61.34.3,8.4,3.08,14.42,6.76,18.74-5.98.55-12.1.85-17.93.85Z"/>
  <path d="M430.88,98.7c-8.6-10.66-15.31-14.44-35.9-14.44-2.44,0-5.05.11-7.85.35,4.56,3.35,9.31,7.77,14.99,13.7,22.34,22.86,49.91,57.35,108.17,136.8l5.44,7.41c3.53,4.66,9.05,7.4,14.9,7.4h1.38c.11-2.94.11-5.9.11-9.26,0-3.74,0-8.12-.2-13.17-19.18-25.64-63.85-82.6-101.04-128.81Z"/>
  <path d="M401.99,124.61c-1.06,17.37-2.42,32.53-3.99,43.99-2.66,21.55-6.41,70.22-11.68,81.23,4.76,1.04,9.25,1.56,13.53,1.56,6.25,0,11.73-.71,16.69-1.79-4.54-10.64-7.82-59.02-10.3-80.6-1.74-14.38-3.02-29.61-4.25-44.38Z"/>
  <path d="M533.28,84.27c-6,0-11.01.41-16.16,1.42,4.89,9.15,8.33,50.99,10.96,70.44,1.3,8.97,2.37,20.8,3.26,31.88,1.14-11.38,2.29-22.29,3.47-32.19,2.64-18.71,6.58-60.64,12.3-70.25-4.49-.89-8.96-1.29-13.83-1.29Z"/>
  <path d="M650.58,98.7c-8.6-10.66-15.31-14.44-35.9-14.44-2.44,0-5.05.11-7.85.35,4.56,3.35,9.31,7.77,14.99,13.7,22.34,22.86,49.91,57.35,108.17,136.8l5.44,7.41c3.53,4.66,9.05,7.4,14.9,7.4h1.38c.11-2.94.11-5.9.11-9.26,0-3.74,0-8.12-.2-13.17-19.18-25.64-63.85-82.6-101.04-128.81Z"/>
  <path d="M621.69,124.61c-1.06,17.37-2.42,32.53-3.99,43.99-2.66,21.55-6.41,70.22-11.68,81.23,4.76,1.04,9.25,1.56,13.53,1.56,6.25,0,11.73-.71,16.69-1.79-4.54-10.64-7.82-59.02-10.3-80.6-1.74-14.38-3.02-29.61-4.25-44.38Z"/>
  <path d="M752.98,84.27c-6,0-11.01.41-16.16,1.42,4.89,9.15,8.33,50.99,10.96,70.44,1.3,8.97,2.37,20.8,3.26,31.88,1.14-11.38,2.29-22.29,3.47-32.19,2.64-18.71,6.58-60.64,12.3-70.25-4.49-.89-8.96-1.29-13.83-1.29Z"/>
</svg>